<?xml version="1.0" encoding="iso-8859-1"?>
<!-- Generator: Adobe Illustrator 17.1.0, SVG Export Plug-In . SVG Version: 6.00 Build 0)  -->
<!DOCTYPE svg PUBLIC "-//W3C//DTD SVG 1.1//EN" "http://www.w3.org/Graphics/SVG/1.1/DTD/svg11.dtd">
<svg xmlns="http://www.w3.org/2000/svg" xmlns:xlink="http://www.w3.org/1999/xlink" version="1.1" id="Capa_1" x="0px" y="0px" viewBox="0 0 153.158 153.158" style="enable-background:new 0 0 153.158 153.158;" xml:space="preserve" width="512px" height="512px">
<path d="M139.368,147.678H13.79c-7.604,0-13.79-6.187-13.79-13.79v-95.67c0-7.604,6.187-13.79,13.79-13.79  h43.518c0.094-0.044,0.192-0.082,0.294-0.114l59.1-18.718c0.655-0.204,1.363-0.136,1.964,0.195c0.6,0.331,1.037,0.895,1.21,1.558  l4.451,17.079h15.042c7.604,0,13.79,6.187,13.79,13.79v95.67C153.158,141.491,146.972,147.678,139.368,147.678z M13.79,29.428  c-4.847,0-8.79,3.943-8.79,8.79v95.67c0,4.847,3.943,8.79,8.79,8.79h125.578c4.847,0,8.79-3.943,8.79-8.79V104.2h-46.567  c-6.075,0-11.018-4.942-11.018-11.017V78.922c0-6.074,4.942-11.017,11.018-11.017h46.567V38.218c0-4.847-3.943-8.79-8.79-8.79H13.79  z M101.591,72.905c-3.318,0-6.018,2.699-6.018,6.017v14.262c0,3.317,2.699,6.017,6.018,6.017h46.567V72.905H101.591z M73.803,24.428  h45.356l-3.458-13.27L73.803,24.428z M109.572,94.94c-4.9,0-8.888-3.987-8.888-8.888s3.987-8.888,8.888-8.888  s8.888,3.987,8.888,8.888S114.473,94.94,109.572,94.94z M109.572,82.165c-2.144,0-3.888,1.744-3.888,3.888s1.744,3.888,3.888,3.888  s3.888-1.744,3.888-3.888S111.716,82.165,109.572,82.165z" fill="#FFFFFF"/>
<g>
</g>
<g>
</g>
<g>
</g>
<g>
</g>
<g>
</g>
<g>
</g>
<g>
</g>
<g>
</g>
<g>
</g>
<g>
</g>
<g>
</g>
<g>
</g>
<g>
</g>
<g>
</g>
<g>
</g>
</svg>
