<?xml version="1.0" encoding="utf-8"?>
<!-- Generator: Adobe Illustrator 19.2.1, SVG Export Plug-In . SVG Version: 6.00 Build 0)  -->
<svg version="1.1" id="Capa_1" xmlns="http://www.w3.org/2000/svg" xmlns:xlink="http://www.w3.org/1999/xlink" x="0px" y="0px"
	 viewBox="0 0 463 463" style="enable-background:new 0 0 463 463;" xml:space="preserve">
<style type="text/css">
	.st0{fill:#FFFFFF;}
</style>
<g>
	<path class="st0" d="M456.8,181.9h-14v-77.2h-49.1V62.5h-344c-23.2,0-42.1,18.9-42.1,42.1v294.9h435.3v-77.2h14V181.9z M49.6,76.5
		h330v28.1H21.5C21.5,89.1,34.1,76.5,49.6,76.5z M428.8,385.5H21.5V118.7h407.2v63.2H310.3c-38.7,0-70.2,31.5-70.2,70.2
		s31.5,70.2,70.2,70.2h118.5V385.5z M442.8,308.2H310.3c-31,0-56.2-25.2-56.2-56.2s25.2-56.2,56.2-56.2h132.5V308.2z"/>
	<path class="st0" d="M288.3,252.1c0,15.5,12.6,28.1,28.1,28.1c15.5,0,28.1-12.6,28.1-28.1S331.9,224,316.4,224
		C300.9,224,288.3,236.6,288.3,252.1z M316.4,238c7.7,0,14,6.3,14,14s-6.3,14-14,14s-14-6.3-14-14S308.7,238,316.4,238z"/>
</g>
</svg>
